<?xml version="1.0" encoding="utf-8"?>
<!-- Generator: Adobe Illustrator 22.0.1, SVG Export Plug-In . SVG Version: 6.00 Build 0)  -->
<svg version="1.1" id="Calque_1" xmlns="http://www.w3.org/2000/svg" xmlns:xlink="http://www.w3.org/1999/xlink" x="0px" y="0px"
	 viewBox="0 0 47 47" style="enable-background:new 0 0 47 47;" xml:space="preserve">
<style type="text/css">
	.st0{fill:#FFFFFF;}
</style>
<g>
	<g>
		<path class="st0" d="M15,36c-1.7,0-3,1.3-3,3s1.3,3,3,3s3-1.3,3-3S16.7,36,15,36z M16,40h-2v-2h2V40z M17,13v2h30v-2H17z M13,28
			L10,5H0v2h8.2L11,28c0,2.8,2.2,5,5,5h26v-2H16C14.3,31,13,29.7,13,28z M17,24h27v-2H17V24z M39,36c-1.7,0-3,1.3-3,3s1.3,3,3,3
			s3-1.3,3-3S40.7,36,39,36z M40,40h-2v-2h2V40z"/>
	</g>
</g>
</svg>
