<?xml version='1.0' encoding='iso-8859-1'?>
<svg version="1.1" xmlns="http://www.w3.org/2000/svg" viewBox="0 0 32 32" xmlns:xlink="http://www.w3.org/1999/xlink" enable-background="new 0 0 32 32">
  <g>
    <g>
      <path d="m13,22.035h2v-6h-2v6zm-4,0h2v-6h-2v6zm8,0h2v-6h-2v6zm4,0h2v-6h-2v6zm-1.519-11.999l3.59-4.657-1.414-1.414-4.68,6.071h-16.977l3,13c0,2.761 2.239,5 5,5h16c2.761,0 5-2.239 5-5l3-13h-12.519zm7.519,13c-0.398,1.838-1.343,3-3,3h-16c-1.657,0-2.733-1.343-3-3l-2.438-11h12.873l-.506,.657 1.414,1.414 1.596-2.071h11.498l-2.437,11z"/>
    </g>
  </g>
</svg>
