<?xml version="1.0" encoding="utf-8"?>
<!-- Generator: Adobe Illustrator 22.0.1, SVG Export Plug-In . SVG Version: 6.00 Build 0)  -->
<svg version="1.1" id="Calque_1" xmlns="http://www.w3.org/2000/svg" xmlns:xlink="http://www.w3.org/1999/xlink" x="0px" y="0px"
	 viewBox="0 0 32 32" style="enable-background:new 0 0 32 32;" xml:space="preserve">
<style type="text/css">
	.st0{fill:#FFFFFF;}
</style>
<g>
	<g>
		<path class="st0" d="M13,22h2v-6h-2V22z M9,22h2v-6H9V22z M17,22h2v-6h-2V22z M21,22h2v-6h-2V22z M19.5,10l3.6-4.7L21.7,4L17,10H0
			l3,13c0,2.8,2.2,5,5,5h16c2.8,0,5-2.2,5-5l3-13C32,10,19.5,10,19.5,10z M27,23c-0.4,1.8-1.3,3-3,3H8c-1.7,0-2.7-1.3-3-3L2.6,12
			h12.9l-0.5,0.7l1.4,1.4l1.6-2.1h11.5L27,23z"/>
	</g>
</g>
</svg>
